<svg width="35" height="24" viewBox="0 0 35 24" fill="none" xmlns="http://www.w3.org/2000/svg">
<path d="M33.833 3.73509C33.4364 2.26498 32.2643 1.10741 30.778 0.713834C28.0842 0 17.2778 0 17.2778 0C17.2778 0 6.47131 0 3.77755 0.713834C2.29127 1.10741 1.11913 2.26498 0.722525 3.73509C0 6.40135 0 11.9615 0 11.9615C0 11.9615 0 17.5217 0.722525 20.188C1.11913 21.6581 2.29127 22.8157 3.77755 23.2092C6.47131 23.9231 17.2778 23.9231 17.2778 23.9231C17.2778 23.9231 28.0842 23.9231 30.778 23.2092C32.2643 22.8157 33.4364 21.6581 33.833 20.188C34.5556 17.5217 34.5556 11.9615 34.5556 11.9615C34.5556 11.9615 34.5556 6.40135 33.833 3.73509Z" fill="#BE2729"/>
<path d="M13.7432 17.0105V6.9126L22.7747 11.9615L13.7432 17.0105Z" fill="white"/>
</svg>
